<svg width="118" height="24" fill="none" xmlns="http://www.w3.org/2000/svg"><g clip-path="url(#clip0_11_87)" fill="#3C2769"><path d="M.72 0h11.726L.72 11.726V0zm11.726 11.726H.72v11.726h11.726V11.726zm19.23 4.774h7.86v-2.141h-5.264V4.219h-2.596V16.5zm13.187.18c2.794 0 4.533-1.913 4.533-4.75 0-2.854-1.739-4.76-4.533-4.76-2.794 0-4.533 1.906-4.533 4.76 0 2.837 1.739 4.75 4.533 4.75zm.012-1.98c-1.29 0-1.949-1.18-1.949-2.787s.66-2.795 1.949-2.795c1.265 0 1.925 1.188 1.925 2.794 0 1.607-.66 2.789-1.925 2.789zm9.825 5.445c2.633 0 4.503-1.199 4.503-3.555v-9.3h-2.536v1.546h-.096c-.342-.75-1.091-1.667-2.633-1.667-2.02 0-3.729 1.571-3.729 4.708 0 3.063 1.66 4.49 3.736 4.49 1.469 0 2.29-.737 2.626-1.498h.108v1.684c0 1.266-.81 1.757-1.919 1.757-1.127 0-1.697-.491-1.907-1.049l-2.362.318c.306 1.45 1.727 2.566 4.209 2.566zm.054-5.696c-1.253 0-1.937-.995-1.937-2.585 0-1.565.672-2.662 1.937-2.662 1.241 0 1.937 1.05 1.937 2.662 0 1.625-.708 2.585-1.937 2.585zM64.89 16.68c2.795 0 4.534-1.913 4.534-4.75 0-2.854-1.74-4.76-4.534-4.76-2.794 0-4.533 1.906-4.533 4.76 0 2.837 1.74 4.75 4.533 4.75zm.012-1.98c-1.289 0-1.948-1.18-1.948-2.787s.66-2.795 1.948-2.795c1.266 0 1.925 1.188 1.925 2.794 0 1.607-.66 2.789-1.925 2.789zm5.676 1.8h2.555V7.29h-2.555v9.21zm1.284-10.398c.761 0 1.385-.582 1.385-1.295 0-.708-.624-1.29-1.385-1.29-.756 0-1.38.582-1.38 1.29 0 .713.624 1.295 1.38 1.295zm2.81 13.851h2.554v-4.928h.078c.354.767 1.127 1.624 2.614 1.624 2.1 0 3.736-1.66 3.736-4.743 0-3.166-1.709-4.737-3.73-4.737-1.54 0-2.278.918-2.62 1.667h-.114V7.29h-2.518v12.664zm2.5-8.058c0-1.643.696-2.693 1.937-2.693 1.265 0 1.937 1.098 1.937 2.693 0 1.606-.684 2.722-1.937 2.722-1.23 0-1.937-1.08-1.937-2.723zm15.342-1.979c-.228-1.697-1.595-2.747-3.921-2.747-2.357 0-3.91 1.092-3.904 2.867-.006 1.379.864 2.272 2.663 2.632l1.595.318c.803.162 1.169.455 1.18.917-.011.546-.605.936-1.498.936-.912 0-1.517-.39-1.673-1.14l-2.513.132c.24 1.763 1.74 2.848 4.18 2.848 2.386 0 4.095-1.217 4.101-3.034-.006-1.33-.875-2.128-2.662-2.494l-1.667-.336c-.858-.186-1.175-.48-1.17-.923-.005-.552.618-.912 1.41-.912.887 0 1.415.486 1.54 1.08l2.34-.144zm7.219 2.662c.006 1.235-.84 1.883-1.757 1.883-.966 0-1.59-.678-1.596-1.763V7.289h-2.554v5.865c.006 2.152 1.265 3.465 3.118 3.465 1.385 0 2.38-.713 2.795-1.792h.096V16.5h2.452V7.29h-2.555v5.288zm4.09 3.922h2.555v-5.53c0-1.02.647-1.697 1.499-1.697.839 0 1.403.576 1.403 1.481V16.5h2.476v-5.625c0-.953.546-1.6 1.475-1.6.816 0 1.427.509 1.427 1.534v5.69h2.549v-6.193c0-1.997-1.187-3.137-2.902-3.137-1.349 0-2.399.69-2.776 1.745h-.097c-.293-1.067-1.235-1.745-2.5-1.745-1.241 0-2.182.66-2.566 1.745h-.108V7.29h-2.435v9.21z"/><path d="M12.445 0h11.726L12.445 11.726V0zm0 11.726h11.726L12.445 23.452V11.726zM31.676 16.5h7.86v-2.141h-5.264V4.219h-2.596V16.5zm13.187.18c2.794 0 4.533-1.913 4.533-4.75 0-2.854-1.739-4.76-4.533-4.76-2.794 0-4.533 1.906-4.533 4.76 0 2.837 1.739 4.75 4.533 4.75zm.012-1.98c-1.29 0-1.949-1.18-1.949-2.787s.66-2.795 1.949-2.795c1.265 0 1.925 1.188 1.925 2.794 0 1.607-.66 2.789-1.925 2.789zm9.825 5.445c2.633 0 4.503-1.199 4.503-3.555v-9.3h-2.536v1.546h-.096c-.342-.75-1.091-1.667-2.633-1.667-2.02 0-3.729 1.571-3.729 4.708 0 3.063 1.66 4.49 3.736 4.49 1.469 0 2.29-.737 2.626-1.498h.108v1.684c0 1.266-.81 1.757-1.919 1.757-1.127 0-1.697-.491-1.907-1.049l-2.362.318c.306 1.45 1.727 2.566 4.209 2.566zm.054-5.696c-1.253 0-1.937-.995-1.937-2.585 0-1.565.672-2.662 1.937-2.662 1.241 0 1.937 1.05 1.937 2.662 0 1.625-.708 2.585-1.937 2.585zM64.89 16.68c2.795 0 4.534-1.913 4.534-4.75 0-2.854-1.74-4.76-4.534-4.76-2.794 0-4.533 1.906-4.533 4.76 0 2.837 1.74 4.75 4.533 4.75zm.012-1.98c-1.289 0-1.948-1.18-1.948-2.787s.66-2.795 1.948-2.795c1.266 0 1.925 1.188 1.925 2.794 0 1.607-.66 2.789-1.925 2.789zm5.676 1.8h2.555V7.29h-2.555v9.21zm1.284-10.398c.761 0 1.385-.582 1.385-1.295 0-.708-.624-1.29-1.385-1.29-.756 0-1.38.582-1.38 1.29 0 .713.624 1.295 1.38 1.295zm2.81 13.851h2.554v-4.928h.078c.354.767 1.127 1.624 2.614 1.624 2.1 0 3.736-1.66 3.736-4.743 0-3.166-1.709-4.737-3.73-4.737-1.54 0-2.278.918-2.62 1.667h-.114V7.29h-2.518v12.664zm2.5-8.058c0-1.643.696-2.693 1.937-2.693 1.265 0 1.937 1.098 1.937 2.693 0 1.606-.684 2.722-1.937 2.722-1.23 0-1.937-1.08-1.937-2.723zm15.342-1.979c-.228-1.697-1.595-2.747-3.921-2.747-2.357 0-3.91 1.092-3.904 2.867-.006 1.379.864 2.272 2.663 2.632l1.595.318c.803.162 1.169.455 1.18.917-.011.546-.605.936-1.498.936-.912 0-1.517-.39-1.673-1.14l-2.513.132c.24 1.763 1.74 2.848 4.18 2.848 2.386 0 4.095-1.217 4.101-3.034-.006-1.33-.875-2.128-2.662-2.494l-1.667-.336c-.858-.186-1.175-.48-1.17-.923-.005-.552.618-.912 1.41-.912.887 0 1.415.486 1.54 1.08l2.34-.144zm7.219 2.662c.006 1.235-.84 1.883-1.757 1.883-.966 0-1.59-.678-1.596-1.763V7.289h-2.554v5.865c.006 2.152 1.265 3.465 3.118 3.465 1.385 0 2.38-.713 2.795-1.792h.096V16.5h2.452V7.29h-2.555v5.288zm4.09 3.922h2.555v-5.53c0-1.02.647-1.697 1.499-1.697.839 0 1.403.576 1.403 1.481V16.5h2.476v-5.625c0-.953.546-1.6 1.475-1.6.816 0 1.427.509 1.427 1.534v5.69h2.549v-6.193c0-1.997-1.187-3.137-2.902-3.137-1.349 0-2.399.69-2.776 1.745h-.097c-.293-1.067-1.235-1.745-2.5-1.745-1.241 0-2.182.66-2.566 1.745h-.108V7.29h-2.435v9.21z"/></g><defs><clipPath id="clip0_11_87"><path fill="#fff" d="M0 0h118v24H0z"/></clipPath></defs></svg>